HIERARCHY
ROOT Hips
{
	OFFSET 0.00000 0.00000 0.00000
	CHANNELS 6 Xposition Yposition Zposition Zrotation Yrotation Xrotation 
	JOINT LHipJoint
	{
		OFFSET 0 0 0
		CHANNELS 3 Zrotation Yrotation Xrotation
		JOINT LeftHip
		{
			OFFSET 1.27966 -1.91611 0.81506
			CHANNELS 3 Zrotation Yrotation Xrotation
			JOINT LeftKnee
			{
				OFFSET 2.49511 -6.85528 0.00000
				CHANNELS 3 Zrotation Yrotation Xrotation
				JOINT LeftAnkle
				{
					OFFSET 2.67286 -7.34045 0.00000
					CHANNELS 3 Zrotation Yrotation Xrotation
					JOINT LeftToe
					{
						OFFSET 0.22740 -0.62477 2.32102
						CHANNELS 3 Zrotation Yrotation Xrotation
						End Site
						{
							OFFSET 0.00000 -0.00000 1.20480
						}
					}
				}
			}
		}
	}
	JOINT RHipJoint
	{
		OFFSET 0 0 0
		CHANNELS 3 Zrotation Yrotation Xrotation
		JOINT RightHip
		{
			OFFSET -1.09666 -1.91611 0.81505
			CHANNELS 3 Zrotation Yrotation Xrotation
			JOINT RightKnee
			{
				OFFSET -2.51373 -6.90642 0.00000
				CHANNELS 3 Zrotation Yrotation Xrotation
				JOINT RightAnkle
				{
					OFFSET -2.70173 -7.42295 0.00000
					CHANNELS 3 Zrotation Yrotation Xrotation
					JOINT RightToe
					{
						OFFSET -0.22214 -0.61032 2.18267
						CHANNELS 3 Zrotation Yrotation Xrotation
						End Site
						{
							OFFSET -0.00000 -0.00000 1.13683
						}
					}
				}
			}
		}
	}
	JOINT lowerback
	{
		OFFSET 0 0 0
		CHANNELS 3 Zrotation Yrotation Xrotation
		JOINT Chest
		{
			OFFSET -0.00990 2.16804 -0.08389
			CHANNELS 3 Zrotation Yrotation Xrotation
			JOINT Chest2
			{
				OFFSET 0.06407 2.15456 0.07285
				CHANNELS 3 Zrotation Yrotation Xrotation
				JOINT lowerneck
				{
					OFFSET 0 0 0
					CHANNELS 3 Zrotation Yrotation Xrotation
					JOINT Neck
					{
						OFFSET -0.16931 1.61602 0.24462
						CHANNELS 3 Zrotation Yrotation Xrotation
						JOINT Head
						{
							OFFSET 0.21556 1.63376 -0.33896
							CHANNELS 3 Zrotation Yrotation Xrotation
							End Site
							{
								OFFSET 0.08444 1.69244 -0.14900
							}
						}
					}
				}
				JOINT LeftCollar
				{
					OFFSET 0 0 0
					CHANNELS 3 Zrotation Yrotation Xrotation
					JOINT LeftShoulder
					{
						OFFSET 2.89000 1.40150 -0.54392
CHANNELS 3 Zrotation Xrotation Yrotation
						JOINT LeftElbow
						{
OFFSET 0 -5.107550 0.000000
CHANNELS 3 Zrotation Xrotation Yrotation
							JOINT LeftWrist
							{
OFFSET 0 -3.362530 0.000000
CHANNELS 3 Zrotation Xrotation Yrotation
								JOINT lhand
								{
									OFFSET 0 0 0
CHANNELS 3 Zrotation Xrotation Yrotation
									JOINT LFingers
									{
OFFSET 0 -0.619090 0.000000
CHANNELS 3 Zrotation Xrotation Yrotation
										End Site
										{
OFFSET 0 -0.499120 0.000000
										}
									}
								}
								JOINT LThumb
								{
OFFSET 0 0.000000 0.000000
CHANNELS 3 Zrotation Xrotation Yrotation
									End Site
									{
OFFSET 0 -0.506750 0.506750
									}
								}
							}
						}
					}
				}
				JOINT RightCollar
				{
					OFFSET 0 0 0
					CHANNELS 3 Zrotation Yrotation Xrotation
					JOINT RightShoulder
					{
						OFFSET -2.65771 1.70968 -0.54312
CHANNELS 3 Zrotation Xrotation Yrotation
						JOINT RightElbow
						{
OFFSET 0 -5.273870 0.000000
CHANNELS 3 Zrotation Xrotation Yrotation
							JOINT RightWrist
							{
OFFSET 0 -3.401440 0.000000
CHANNELS 3 Zrotation Xrotation Yrotation
								JOINT rhand
								{
									OFFSET 0 0 0
CHANNELS 3 Zrotation Xrotation Yrotation
									JOINT RFingers
									{
OFFSET 0 -0.742820 0.000000
CHANNELS 3 Zrotation Xrotation Yrotation
										End Site
										{
OFFSET 0 -0.598880 0.000000
										}
									}
								}
								JOINT RThumb
								{
OFFSET 0 0.000000 0.000000
CHANNELS 3 Zrotation Xrotation Yrotation
									End Site
									{
OFFSET 0 -0.608030 0.608030
									}
								}
							}
						}
					}
				}
			}
		}
	}
}
MOTION
Frames: 12
Frame Time: 0.008333333333333333
0.185100 17.887800 -39.945800 1.493200 -3.429500 1.067600 0.000000 0.000000 0.000000 -22.915800 -1.082000 -20.004100 2.753300 10.284500 29.903100 -0.100000 -13.337700 -8.052700 0.244000 -3.178400 -8.775900 0.000000 0.000000 0.000000 17.010900 -0.144200 -6.216800 -9.330100 -17.015500 57.224900 -1.187800 -9.828500 19.646200 -0.505600 4.558100 -12.652200 -4.693100 1.027700 13.477000 0.997900 0.710400 0.339500 3.581700 0.527100 -7.289000 -14.422200 -4.214600 -18.279300 6.896100 -3.575100 29.989800 4.615500 -2.296400 13.637100 0.000000 -0.000000 0.000000 -0.346800 9.727500 -15.763000 17.983000 -28.135400 4.541200 16.229000 7.253000 -26.014100 0.000000 0.000000 0.000000 -7.125000 0.000000 0.000000 -14.851700 56.301300 4.180800 0.000000 -0.000000 0.000000 -4.568900 4.952700 22.811300 -17.269000 -27.211000 -4.209600 -18.475300 -0.829000 -13.354900 0.000000 0.000000 0.000000 7.125000 0.000000 -0.000000 6.102700 15.980100 4.211000
0.335063 17.622823 -35.425048 4.834001 -1.427649 -0.506525 0.000000 0.000000 0.000000 -28.069654 6.090233 1.376687 1.652765 8.100554 23.020745 0.695946 -14.837024 -16.978963 0.463531 -4.367224 -12.112173 0.000000 0.000000 0.000000 12.187769 5.572709 -33.307851 -4.055409 -12.229471 36.554889 -0.116899 -5.800925 -11.003802 -0.127294 2.212999 -6.098399 -8.313793 -0.465372 12.595286 1.031575 -1.737479 0.645061 6.112395 -0.604892 -6.117227 -14.194447 -3.879769 -18.541828 7.336587 -3.275758 29.471225 4.787599 -2.066543 13.423725 0.000000 0.000000 0.000000 3.960430 2.344340 -21.657143 22.363787 -33.385639 6.784985 18.421881 4.623633 -27.092174 0.000000 0.000000 0.000000 -7.125000 0.000000 0.000000 -13.159902 57.825456 4.179145 0.000000 0.000000 0.000000 -5.152653 3.630736 19.057100 -18.442048 -28.719315 -4.759878 -18.632569 0.606605 -9.924463 0.000000 0.000000 0.000000 7.125000 0.000000 0.000000 5.948294 19.547546 3.635103
-0.212540 17.946521 -29.736816 -1.685838 0.761525 -0.728876 0.000000 0.000000 0.000000 -18.111391 -2.082389 1.176087 7.011349 15.336719 48.909006 1.698799 -5.121457 26.913234 0.517640 -4.610902 -12.802117 0.000000 0.000000 0.000000 23.322010 5.861206 -19.668121 -3.147038 -10.929092 32.041366 -0.297442 0.914936 -10.018898 -0.002766 -0.338941 0.931336 -2.043816 -0.757462 11.939999 3.584071 -1.057212 0.602897 5.128037 -0.414778 -5.965891 -14.685686 -4.278131 -19.222740 6.342993 -3.285415 32.030856 4.562166 -2.342317 14.715539 0.000000 0.000000 0.000000 -0.663033 9.092310 -18.413626 18.199468 -28.411826 4.643785 12.300347 6.583683 -28.268275 0.000000 0.000000 0.000000 -7.125000 0.000000 0.000000 -20.262877 57.636778 6.444502 0.000000 0.000000 0.000000 -3.912142 5.530182 7.382236 -10.848762 -18.056008 -1.728856 -17.998865 8.093057 -12.698630 0.000000 0.000000 0.000000 7.125000 0.000000 0.000000 6.419127 16.703884 4.330727
-0.296963 17.709966 -24.654398 -8.233460 -3.616487 -0.843689 0.000000 0.000000 0.000000 -6.284849 -5.729259 -31.740303 4.490020 12.785320 38.569964 0.288766 0.349025 -10.282722 1.217755 -6.999824 -19.714957 0.000000 0.000000 0.000000 32.845381 1.120197 4.248293 -1.768258 -8.365652 23.830422 -1.294909 1.956996 -20.958945 -0.572620 4.845864 -13.469546 4.467764 1.748663 11.989787 4.478252 3.174089 1.157896 1.668301 1.505089 -5.527595 -14.919797 -4.537755 -17.639686 5.731803 -3.625742 33.372453 4.334030 -2.658304 15.036432 0.000000 0.000000 0.000000 -2.820655 12.315485 -12.755482 18.471566 -28.756843 4.774001 13.513279 5.400835 -26.636130 0.000000 0.000000 0.000000 -7.125000 0.000000 0.000000 -17.984388 56.347851 5.120569 0.000000 0.000000 0.000000 -8.662094 -3.104389 22.782344 -16.594241 -26.319754 -3.905752 -20.113762 -0.610002 -9.208915 0.000000 0.000000 0.000000 7.125000 0.000000 0.000000 4.886046 20.201279 2.908706
0.458445 17.764496 -18.486281 2.239480 -5.368031 -4.423969 0.000000 0.000000 0.000000 -23.211799 0.075720 -16.850783 3.030794 10.744455 31.423114 -0.197682 -11.938259 -5.228301 0.083185 -1.860099 -5.119237 0.000000 0.000000 0.000000 16.312469 2.528737 -3.652801 -10.998148 -17.931997 62.772876 0.052496 -9.125305 5.369882 -0.231892 3.099009 -8.554497 -4.574010 1.777176 10.927405 1.479518 1.891389 1.654519 3.850790 1.020125 -4.594541 -13.529936 -3.119275 -17.535346 4.394788 -1.537977 36.858080 4.024475 -1.942304 16.390629 0.000000 0.000000 0.000000 -2.058168 10.723510 -9.954490 15.423393 -24.732498 3.401240 10.044888 7.856883 -28.597840 0.000000 0.000000 0.000000 -7.125000 0.000000 0.000000 -22.782859 57.462808 7.203312 0.000000 0.000000 0.000000 -5.110140 0.391783 18.309136 -19.055625 -29.487257 -5.058406 -18.509496 -0.569637 -11.131333 0.000000 0.000000 0.000000 7.125000 0.000000 0.000000 6.043319 18.295514 3.862571
0.530555 17.519626 -13.227996 7.241158 2.635616 -3.064975 0.000000 0.000000 0.000000 -28.894676 7.441022 5.311899 1.508250 7.755425 21.974055 -0.295143 -20.737579 -12.117747 0.002429 -0.319211 -0.877007 0.000000 0.000000 0.000000 9.100401 9.146396 -30.212058 -2.904426 -10.536932 30.735428 -0.359759 -4.687260 -14.027227 -0.398817 4.031518 -11.168462 -9.968132 -0.980958 10.302970 1.203532 -2.366918 1.264622 7.222563 -1.015103 -3.997026 -12.746814 -2.379463 -16.654020 3.355316 -0.437216 37.876803 3.655992 -1.570470 16.557152 0.000000 0.000000 0.000000 5.099592 4.994702 -21.342958 27.242849 -38.409747 9.649670 16.007776 1.205824 -27.596871 0.000000 0.000000 0.000000 -7.125000 0.000000 0.000000 -15.996972 57.794221 5.096309 0.000000 0.000000 0.000000 -4.375618 5.452173 5.719110 -12.267572 -20.204567 -2.193933 -19.748830 4.172098 -15.457958 0.000000 0.000000 0.000000 7.125000 0.000000 0.000000 5.305397 13.657751 3.920957
-0.094367 17.795559 -7.660648 -2.582726 2.120528 -6.206420 0.000000 0.000000 0.000000 -12.130615 -3.393537 -16.128212 15.936451 19.599346 78.042222 -0.245126 -9.986301 -1.499652 0.869914 -5.946654 -16.629733 0.000000 0.000000 0.000000 25.980716 4.763274 -16.082592 -3.310114 -11.180964 32.892522 -0.202220 -1.614781 -9.246064 -0.003736 0.396182 -1.088475 -1.192181 -0.398720 12.997173 4.250769 -0.467882 2.593410 5.238658 -0.195574 -4.511307 -13.035243 -2.722775 -16.152802 3.347089 -0.849336 40.419767 3.721778 -1.896273 17.907198 0.000000 0.000000 0.000000 0.614357 8.044094 -18.264404 19.012014 -29.433697 5.036775 11.199427 8.324606 -30.963835 0.000000 0.000000 0.000000 -7.125000 0.000000 0.000000 -23.414738 59.876551 8.791633 0.000000 0.000000 0.000000 -5.558623 3.956455 8.883641 -13.434238 -21.920123 -2.613178 -19.211379 2.334622 -18.182758 0.000000 0.000000 0.000000 7.125000 0.000000 0.000000 5.794686 10.877606 4.621373
-0.091877 17.949307 -4.105726 -8.207010 -4.790497 -5.953597 0.000000 0.000000 0.000000 -3.264370 -10.619589 -59.888263 15.568853 19.522394 76.944374 -0.207222 -16.628044 -9.500289 0.083505 -1.846244 -5.081535 0.000000 0.000000 0.000000 34.049949 0.636132 3.723797 -1.463365 -7.645111 21.641334 -0.708850 1.280987 -15.521114 -0.017581 0.854877 -2.349610 6.026716 1.428778 15.835157 4.665978 3.061220 4.395379 0.946618 1.472791 -4.128330 -13.241816 -2.891766 -15.083027 3.997461 -1.446104 41.058616 3.977350 -2.103103 18.078393 0.000000 0.000000 0.000000 -0.635009 8.796294 -20.093043 20.031990 -30.680837 5.547702 11.341206 5.639357 -26.545979 0.000000 0.000000 0.000000 -7.125000 0.000000 0.000000 -20.118328 55.826078 5.503776 0.000000 0.000000 0.000000 -11.225161 -5.457019 20.582043 -28.264235 -39.358246 -10.290888 -22.017081 -8.308332 -11.548385 0.000000 0.000000 0.000000 7.125000 0.000000 0.000000 3.591206 17.565169 2.344600
0.002610 18.541282 -0.234445 -6.054669 -4.684777 0.828127 0.000000 0.000000 0.000000 -9.283386 -10.429784 -50.772803 15.371890 19.477996 76.353937 0.581600 -18.878035 -17.913184 0.020954 0.889895 2.446153 0.000000 0.000000 0.000000 29.400233 -0.930752 4.871400 -2.082464 -9.035083 25.905769 -0.004685 0.375647 0.296053 -0.416794 4.129044 -11.442034 1.885092 2.712789 14.849627 2.964548 4.056947 2.593665 1.277916 1.972475 -5.648863 -13.099534 -3.622956 -16.158391 5.526148 -3.077631 39.420038 4.298935 -2.451954 17.635116 0.000000 0.000000 0.000000 0.991653 7.243532 -17.444011 20.745884 -31.530461 5.916558 14.140901 5.264791 -27.050139 0.000000 0.000000 0.000000 -7.125000 0.000000 0.000000 -17.596046 56.872171 5.231475 0.000000 0.000000 0.000000 -6.671980 0.952439 25.233818 -24.826991 -36.026277 -8.188089 -17.921127 -6.208807 -9.607653 0.000000 0.000000 0.000000 7.125000 0.000000 0.000000 6.457164 19.923186 3.892891
0.274737 20.558676 2.415185 3.054255 -7.489836 -4.468894 0.000000 0.000000 0.000000 -27.812725 -4.264796 -13.433149 4.474660 12.766562 38.500723 1.568179 -9.559682 -22.467359 0.011286 0.681842 1.873754 0.000000 0.000000 0.000000 9.041982 7.110406 -46.536512 -25.383161 -19.290440 105.920377 -0.337708 -0.497831 -11.169050 -0.060472 1.586333 -4.363729 -7.098609 0.788797 16.973336 1.159073 -0.145998 3.645937 5.311549 0.026712 -5.567815 -11.525998 -0.635380 -16.028415 2.175520 2.221492 40.905923 3.481204 -0.654280 17.787696 0.000000 0.000000 0.000000 4.320803 6.295938 -22.296932 27.017240 -38.195673 9.509829 15.255671 1.896693 -29.145743 0.000000 0.000000 0.000000 -7.125000 0.000000 0.000000 -17.794147 59.114864 6.260428 0.000000 0.000000 0.000000 -7.563609 2.658303 24.482203 -27.659292 -38.800651 -9.909471 -19.641937 -4.483828 -9.125073 0.000000 0.000000 0.000000 7.125000 0.000000 0.000000 5.223777 20.320493 3.097316
0.186703 20.448655 4.014694 4.731989 -5.496283 -6.693727 0.000000 0.000000 0.000000 -31.528314 -1.952418 -0.065026 2.877441 10.494024 30.591828 2.789694 -8.221490 -30.169735 0.321103 3.642226 10.072252 0.000000 0.000000 0.000000 6.872173 13.448489 -61.851002 -21.989899 -19.904724 95.826909 -1.159026 8.578812 -19.293472 -1.144562 6.775924 -19.060010 -8.102709 -0.440748 15.860975 2.430958 -1.771748 3.594783 7.568961 -0.793611 -4.701969 -11.039924 -0.402017 -15.683120 1.312281 2.656089 40.929018 3.065905 -0.526406 17.702398 0.000000 0.000000 0.000000 2.886011 6.157524 -24.938367 30.452099 -41.277814 11.706735 19.086035 2.277751 -22.137857 0.000000 0.000000 0.000000 -7.125000 0.000000 0.000000 -10.179158 52.979290 2.048379 0.000000 0.000000 0.000000 -7.601861 4.026208 18.835031 -24.930323 -36.132669 -8.248755 -19.611958 -4.263142 -12.631319 0.000000 0.000000 0.000000 7.125000 0.000000 0.000000 5.300217 16.634573 3.576780
-0.347623 21.662875 5.423919 2.574832 -3.084398 -0.084126 0.000000 0.000000 0.000000 -25.627370 0.088407 -2.077044 2.318467 9.500002 27.372447 0.142045 -11.315207 -9.866560 0.941924 -6.156998 -17.248501 0.000000 0.000000 0.000000 12.902401 11.950324 -54.189002 -18.141856 -19.916372 84.559808 -1.980469 8.210409 -25.256572 -0.888169 6.007260 -16.805566 -5.228221 -0.498953 15.087923 3.510361 -1.278213 1.809450 7.009034 -0.455319 -6.338057 -11.299645 -1.164205 -17.785271 1.959574 1.587012 37.947172 3.159953 -0.736790 16.663695 0.000000 0.000000 0.000000 -1.351983 11.154223 -22.085629 21.887294 -32.848888 6.524863 14.389432 6.890953 -24.896196 0.000000 0.000000 0.000000 -7.125000 0.000000 0.000000 -16.123035 54.848020 3.978151 0.000000 0.000000 0.000000 -6.010587 5.416798 16.781704 -20.965045 -31.786820 -6.031894 -19.646882 -2.393920 -13.249130 0.000000 0.000000 0.000000 7.125000 0.000000 0.000000 5.293599 15.983093 3.647477
